<svg width="102" height="51" viewBox="0 0 102 51" fill="none" xmlns="http://www.w3.org/2000/svg">
<g clip-path="url(#clip0_4_43)">
<path d="M14.625 42.5C11.2125 42.5 8.2965 41.3844 5.877 39.1531C3.4575 36.9219 2.2485 34.1948 2.25 30.9719C2.25 28.2094 3.13125 25.7479 4.89375 23.5875C6.65625 21.4271 8.9625 20.0458 11.8125 19.4437C12.75 16.1854 14.625 13.5469 17.4375 11.5281C20.25 9.50938 23.4375 8.5 27 8.5C31.3875 8.5 35.1098 9.94358 38.1668 12.8308C41.2238 15.7179 42.7515 19.2327 42.75 23.375C45.3375 23.6583 47.4848 24.7123 49.1918 26.537C50.8988 28.3617 51.7515 30.4952 51.75 32.9375C51.75 35.5938 50.7653 37.8519 48.7958 39.712C46.8263 41.5721 44.436 42.5014 41.625 42.5H14.625Z" fill="#001129"/>
<path d="M17.688 35.096C16.8453 35.096 16.0667 34.9573 15.352 34.68C14.6373 34.392 14.0187 33.992 13.496 33.48C12.9733 32.968 12.5627 32.3653 12.264 31.672C11.976 30.9787 11.832 30.2213 11.832 29.4C11.832 28.5787 11.976 27.8213 12.264 27.128C12.5627 26.4347 12.9733 25.832 13.496 25.32C14.0293 24.808 14.6533 24.4133 15.368 24.136C16.0827 23.848 16.8613 23.704 17.704 23.704C18.5147 23.704 19.2773 23.8427 19.992 24.12C20.7067 24.3867 21.3093 24.792 21.8 25.336L21.048 26.088C20.5893 25.6187 20.0827 25.2827 19.528 25.08C18.9733 24.8667 18.376 24.76 17.736 24.76C17.064 24.76 16.44 24.8773 15.864 25.112C15.288 25.336 14.7867 25.6613 14.36 26.088C13.9333 26.504 13.5973 26.9947 13.352 27.56C13.1173 28.1147 13 28.728 13 29.4C13 30.072 13.1173 30.6907 13.352 31.256C13.5973 31.8107 13.9333 32.3013 14.36 32.728C14.7867 33.144 15.288 33.4693 15.864 33.704C16.44 33.928 17.064 34.04 17.736 34.04C18.376 34.04 18.9733 33.9333 19.528 33.72C20.0827 33.5067 20.5893 33.1653 21.048 32.696L21.8 33.448C21.3093 33.992 20.7067 34.4027 19.992 34.68C19.2773 34.9573 18.5093 35.096 17.688 35.096ZM24.084 35V23.128H25.22V35H24.084ZM28.3809 35V26.6H29.5169V35H28.3809ZM28.9569 24.744C28.7222 24.744 28.5249 24.664 28.3649 24.504C28.2049 24.344 28.1249 24.152 28.1249 23.928C28.1249 23.704 28.2049 23.5173 28.3649 23.368C28.5249 23.208 28.7222 23.128 28.9569 23.128C29.1915 23.128 29.3889 23.2027 29.5489 23.352C29.7089 23.5013 29.7889 23.688 29.7889 23.912C29.7889 24.1467 29.7089 24.344 29.5489 24.504C29.3995 24.664 29.2022 24.744 28.9569 24.744ZM37.0138 35.08C36.2884 35.08 35.6324 34.9147 35.0458 34.584C34.4591 34.2427 33.9898 33.7573 33.6378 33.128C33.2964 32.488 33.1258 31.7093 33.1258 30.792C33.1258 29.8747 33.2964 29.1013 33.6378 28.472C33.9791 27.832 34.4431 27.3467 35.0298 27.016C35.6164 26.6853 36.2778 26.52 37.0138 26.52C37.8138 26.52 38.5284 26.7013 39.1578 27.064C39.7978 27.416 40.2991 27.9173 40.6618 28.568C41.0244 29.208 41.2058 29.9493 41.2058 30.792C41.2058 31.6453 41.0244 32.392 40.6618 33.032C40.2991 33.672 39.7978 34.1733 39.1578 34.536C38.5284 34.8987 37.8138 35.08 37.0138 35.08ZM32.6778 38.104V26.6H33.7658V29.128L33.6538 30.808L33.8138 32.504V38.104H32.6778ZM36.9338 34.072C37.5311 34.072 38.0644 33.9387 38.5338 33.672C39.0031 33.3947 39.3764 33.0107 39.6538 32.52C39.9311 32.0187 40.0698 31.4427 40.0698 30.792C40.0698 30.1413 39.9311 29.5707 39.6538 29.08C39.3764 28.5893 39.0031 28.2053 38.5338 27.928C38.0644 27.6507 37.5311 27.512 36.9338 27.512C36.3364 27.512 35.7978 27.6507 35.3177 27.928C34.8484 28.2053 34.4751 28.5893 34.1978 29.08C33.9311 29.5707 33.7978 30.1413 33.7978 30.792C33.7978 31.4427 33.9311 32.0187 34.1978 32.52C34.4751 33.0107 34.8484 33.3947 35.3177 33.672C35.7978 33.9387 36.3364 34.072 36.9338 34.072Z" fill="white"/>
<path d="M60.688 35.096C59.8453 35.096 59.0667 34.9573 58.352 34.68C57.6373 34.392 57.0187 33.992 56.496 33.48C55.9733 32.968 55.5627 32.3653 55.264 31.672C54.976 30.9787 54.832 30.2213 54.832 29.4C54.832 28.5787 54.976 27.8213 55.264 27.128C55.5627 26.4347 55.9733 25.832 56.496 25.32C57.0293 24.808 57.6533 24.4133 58.368 24.136C59.0827 23.848 59.8613 23.704 60.704 23.704C61.5147 23.704 62.2773 23.8427 62.992 24.12C63.7067 24.3867 64.3093 24.792 64.8 25.336L64.048 26.088C63.5893 25.6187 63.0827 25.2827 62.528 25.08C61.9733 24.8667 61.376 24.76 60.736 24.76C60.064 24.76 59.44 24.8773 58.864 25.112C58.288 25.336 57.7867 25.6613 57.36 26.088C56.9333 26.504 56.5973 26.9947 56.352 27.56C56.1173 28.1147 56 28.728 56 29.4C56 30.072 56.1173 30.6907 56.352 31.256C56.5973 31.8107 56.9333 32.3013 57.36 32.728C57.7867 33.144 58.288 33.4693 58.864 33.704C59.44 33.928 60.064 34.04 60.736 34.04C61.376 34.04 61.9733 33.9333 62.528 33.72C63.0827 33.5067 63.5893 33.1653 64.048 32.696L64.8 33.448C64.3093 33.992 63.7067 34.4027 62.992 34.68C62.2773 34.9573 61.5093 35.096 60.688 35.096ZM67.084 35V23.128H68.22V35H67.084ZM74.8049 35.08C73.9942 35.08 73.2635 34.8987 72.6129 34.536C71.9729 34.1627 71.4662 33.656 71.0929 33.016C70.7195 32.3653 70.5329 31.624 70.5329 30.792C70.5329 29.9493 70.7195 29.208 71.0929 28.568C71.4662 27.928 71.9729 27.4267 72.6129 27.064C73.2529 26.7013 73.9835 26.52 74.8049 26.52C75.6369 26.52 76.3729 26.7013 77.0129 27.064C77.6635 27.4267 78.1702 27.928 78.5329 28.568C78.9062 29.208 79.0929 29.9493 79.0929 30.792C79.0929 31.624 78.9062 32.3653 78.5329 33.016C78.1702 33.656 77.6635 34.1627 77.0129 34.536C76.3622 34.8987 75.6262 35.08 74.8049 35.08ZM74.8049 34.072C75.4129 34.072 75.9515 33.9387 76.4209 33.672C76.8902 33.3947 77.2582 33.0107 77.5249 32.52C77.8022 32.0187 77.9409 31.4427 77.9409 30.792C77.9409 30.1307 77.8022 29.5547 77.5249 29.064C77.2582 28.5733 76.8902 28.1947 76.4209 27.928C75.9515 27.6507 75.4182 27.512 74.8209 27.512C74.2235 27.512 73.6902 27.6507 73.2209 27.928C72.7515 28.1947 72.3782 28.5733 72.1009 29.064C71.8235 29.5547 71.6849 30.1307 71.6849 30.792C71.6849 31.4427 71.8235 32.0187 72.1009 32.52C72.3782 33.0107 72.7515 33.3947 73.2209 33.672C73.6902 33.9387 74.2182 34.072 74.8049 34.072ZM84.8841 35.08C84.1695 35.08 83.5455 34.9467 83.0121 34.68C82.4788 34.4133 82.0628 34.0133 81.7641 33.48C81.4761 32.9467 81.3321 32.28 81.3321 31.48V26.6H82.4681V31.352C82.4681 32.248 82.6868 32.9253 83.1241 33.384C83.5721 33.832 84.1961 34.056 84.9961 34.056C85.5828 34.056 86.0895 33.9387 86.5161 33.704C86.9535 33.4587 87.2841 33.1067 87.5081 32.648C87.7428 32.1893 87.8601 31.64 87.8601 31V26.6H88.9961V35H87.9081V32.696L88.0841 33.112C87.8175 33.7307 87.4015 34.216 86.8361 34.568C86.2815 34.9093 85.6308 35.08 84.8841 35.08ZM95.5061 35.08C94.7061 35.08 93.9861 34.8987 93.3461 34.536C92.7168 34.1733 92.2208 33.672 91.8581 33.032C91.4955 32.3813 91.3141 31.6347 91.3141 30.792C91.3141 29.9387 91.4955 29.192 91.8581 28.552C92.2208 27.912 92.7168 27.416 93.3461 27.064C93.9861 26.7013 94.7061 26.52 95.5061 26.52C96.2421 26.52 96.8981 26.6853 97.4741 27.016C98.0608 27.3467 98.5248 27.832 98.8661 28.472C99.2181 29.1013 99.3941 29.8747 99.3941 30.792C99.3941 31.6987 99.2235 32.472 98.8821 33.112C98.5408 33.752 98.0768 34.2427 97.4901 34.584C96.9141 34.9147 96.2528 35.08 95.5061 35.08ZM95.5861 34.072C96.1835 34.072 96.7168 33.9387 97.1861 33.672C97.6661 33.3947 98.0395 33.0107 98.3061 32.52C98.5835 32.0187 98.7221 31.4427 98.7221 30.792C98.7221 30.1307 98.5835 29.5547 98.3061 29.064C98.0395 28.5733 97.6661 28.1947 97.1861 27.928C96.7168 27.6507 96.1835 27.512 95.5861 27.512C94.9995 27.512 94.4715 27.6507 94.0021 27.928C93.5328 28.1947 93.1595 28.5733 92.8821 29.064C92.6048 29.5547 92.4661 30.1307 92.4661 30.792C92.4661 31.4427 92.6048 32.0187 92.8821 32.52C93.1595 33.0107 93.5328 33.3947 94.0021 33.672C94.4715 33.9387 94.9995 34.072 95.5861 34.072ZM98.7541 35V32.472L98.8661 30.776L98.7061 29.08V23.128H99.8421V35H98.7541Z" fill="#001129"/>
</g>
<defs>
<clipPath id="clip0_4_43">
<rect width="102" height="51" fill="white"/>
</clipPath>
</defs>
</svg>
